HIERARCHY
ROOT Hips
{
  OFFSET 50.8196 100.481 12.1741
  CHANNELS 6 Xposition Yposition Zposition Zrotation Xrotation Yrotation
  JOINT spine
  {
    OFFSET 0 8.81705 0.507024
    CHANNELS 3 Zrotation Xrotation Yrotation
    JOINT spine1
    {
      OFFSET 0 10.7766 0
      CHANNELS 3 Zrotation Xrotation Yrotation
      JOINT spine2
      {
        OFFSET 0 10.3259 0
        CHANNELS 3 Zrotation Xrotation Yrotation
        JOINT Neck
        {
          OFFSET 0 26.511 1.26395
          CHANNELS 3 Zrotation Xrotation Yrotation
          JOINT Head
          {
            OFFSET 0 8.00966 0
            CHANNELS 3 Zrotation Xrotation Yrotation
            End Site
            {
              OFFSET 0 19.3879 -6.39386
            }
          }
        }
        JOINT RightShoulder
        {
          OFFSET -4.34795 11.1512 -0.605422
          CHANNELS 3 Zrotation Xrotation Yrotation
          JOINT RightArm
          {
            OFFSET 0 14.6258 0
            CHANNELS 3 Zrotation Xrotation Yrotation
            JOINT RightArmRoll
            {
              OFFSET 0 7.3834 0
              CHANNELS 3 Zrotation Xrotation Yrotation
              JOINT RightForeArm
              {
                OFFSET 0 21.5052 0
                CHANNELS 3 Zrotation Xrotation Yrotation
                JOINT RightForeArmRoll
                {
                  OFFSET 0 8.28532 0
                  CHANNELS 3 Zrotation Xrotation Yrotation
                  JOINT RightHand
                  {
                    OFFSET 0 16.6268 0
                    CHANNELS 3 Zrotation Xrotation Yrotation
                    End Site
                    {
                      OFFSET 0 0 0
                    }
                  }
                }
              }
            }
          }
        }
        JOINT LeftShoulder
        {
          OFFSET 4.34795 11.1512 -0.605422
          CHANNELS 3 Zrotation Xrotation Yrotation
          JOINT LeftArm
          {
            OFFSET 0 14.6258 0
            CHANNELS 3 Zrotation Xrotation Yrotation
            JOINT LeftArmRoll
            {
              OFFSET 0 7.3834 0
              CHANNELS 3 Zrotation Xrotation Yrotation
              JOINT LeftForeArm
              {
                OFFSET 0 21.5052 0
                CHANNELS 3 Zrotation Xrotation Yrotation
                JOINT LeftForeArmRoll
                {
                  OFFSET 0 8.28532 0
                  CHANNELS 3 Zrotation Xrotation Yrotation
                  JOINT LeftHand
                  {
                    OFFSET 0 16.6268 0
                    CHANNELS 3 Zrotation Xrotation Yrotation
                    End Site
                    {
                      OFFSET 0 0 0
                    }
                  }
                }
              }
            }
          }
        }
      }
    }
  }
  JOINT RightUpLeg
  {
    OFFSET -7.8151 -1.43309 -1.20217
    CHANNELS 3 Zrotation Xrotation Yrotation
    JOINT RightUpLegRoll
    {
      OFFSET 0 19.4959 0
      CHANNELS 3 Zrotation Xrotation Yrotation
      JOINT RightLeg
      {
        OFFSET 0 -24.1427 0
        CHANNELS 3 Zrotation Xrotation Yrotation
        JOINT RightLegRoll
        {
          OFFSET 0 24.2217 0
          CHANNELS 3 Zrotation Xrotation Yrotation
          JOINT RightFoot
          {
            OFFSET 0 20.1605 0
            CHANNELS 3 Zrotation Xrotation Yrotation
            JOINT RightToeBase
            {
              OFFSET 0 16.8532 0
              CHANNELS 3 Zrotation Xrotation Yrotation
              End Site
              {
                OFFSET 0.00714343 8.16187 -0.94078
              }
            }
          }
        }
      }
    }
  }
  JOINT LeftUpLeg
  {
    OFFSET 7.8151 -1.43309 -1.20217
    CHANNELS 3 Zrotation Xrotation Yrotation
    JOINT LeftUpLegRoll
    {
      OFFSET 0 19.496 0
      CHANNELS 3 Zrotation Xrotation Yrotation
      JOINT LeftLeg
      {
        OFFSET 0 24.1426 0
        CHANNELS 3 Zrotation Xrotation Yrotation
        JOINT LeftLegRoll
        {
          OFFSET 0 24.4456 0
          CHANNELS 3 Zrotation Xrotation Yrotation
          JOINT LeftFoot
          {
            OFFSET 0 19.9366 0
            CHANNELS 3 Zrotation Xrotation Yrotation
            JOINT LeftToeBase
            {
              OFFSET 0 16.8532 0
              CHANNELS 3 Zrotation Xrotation Yrotation
              End Site
              {
                OFFSET -0.0320138 8.16187 -0.94078
              }
            }
          }
        }
      }
    }
  }
}
MOTION
Frames: 13
Frame Time: 0.00208333
60.0037 99.7685 12.7137 -1.40675 2.84496 56.6698 -0.632069 -2.25638 0.977672 -1.23336 -0.520806 2.01253 -1.25771 1.12362 2.03344 -39.6578 -2.3323 4.28516 20.7381 3.01605 1.62081 20.4392 4.70533 11.8262 146.284 83.4502 -2.22971 -1.3697e-005 2.10748e-005 5.35308e-006 -9.90388 66.2251 8.71357 -1.75579e-005 -1.57421e-006 -3.00406 8.02904 -4.95089 0.697304 -73.6774 -17.5436 9.76599 -87.353 6.79389 -7.97139 -3.18055e-015 1.78906e-015 -4.77083e-015 -16.5067 14.0706 2.34854 3.51121e-006 1.31715e-005 2.99999 -8.02943 -4.95095 -0.697444 174.949 -3.37876 2.52742 180 7.0152e-015 178.812 177.735 15.5922 179.884 1.12461e-006 -6.64692e-007 0.663509 -26.3643 75.0171 28.0493 8.29276 32.0366 -1.19202 179.727 14.4896 4.12527 4.54188e-006 -4.6773e-006 -0.965484 -3.15938 -15.1899 0.102899 -6.58399e-007 -4.47814e-006 -0.257004 21.47 71.0263 -22.4495 -8.1276 25.2332 3.48395 
60.0488 99.7645 12.6966 -1.41704 2.82772 56.7798 -0.631855 -2.25677 0.976716 -1.23301 -0.52162 2.01065 -1.25733 1.1228 2.03156 -39.7188 -2.29515 4.27004 20.8335 2.99821 1.59623 20.3319 4.73486 11.8943 148.711 83.4222 -4.42055 -1.3697e-005 2.10748e-005 5.35308e-006 -10.223 65.5344 8.82043 -1.75579e-005 -1.57421e-006 -3.00406 8.02904 -4.95089 0.697304 -73.729 -17.5552 9.76762 -87.4301 6.81901 -8.10634 -3.18055e-015 -1.54058e-014 -1.59028e-015 -16.3629 14.14 2.35561 3.51121e-006 1.31715e-005 2.99999 -8.02943 -4.95095 -0.697444 174.986 -3.42674 2.51015 180 7.0152e-015 178.811 177.743 15.5645 179.882 1.12461e-006 -6.64692e-007 0.661532 -26.3012 74.9814 27.9845 8.29682 32.1184 -1.20845 179.739 14.4829 4.11194 4.54188e-006 -4.6773e-006 -0.965522 -3.16707 -15.188 0.101408 -6.58399e-007 -4.47814e-006 -0.25695 21.4695 71.0264 -22.4494 -8.1276 25.2332 3.48395 
60.0843 99.7715 12.7194 -1.42746 2.80813 56.8914 -0.631258 -2.2573 0.975376 -1.23193 -0.522725 2.008 -1.25622 1.1217 2.0289 -39.7727 -2.25102 4.25634 20.9265 2.97707 1.57177 20.2284 4.75811 11.9543 151.092 83.3811 -6.57306 -1.3697e-005 2.10748e-005 5.35308e-006 -10.5369 64.8555 8.92061 -1.75579e-005 -1.57421e-006 -3.00406 8.02904 -4.95089 0.697304 -73.7793 -17.5625 9.76727 -87.5095 6.83796 -8.24142 3.18055e-015 3.97569e-016 -1.59028e-015 -16.2189 14.2114 2.3625 3.51121e-006 1.31715e-005 2.99999 -8.02943 -4.95095 -0.697444 175.026 -3.47651 2.49062 180 7.0152e-015 178.811 177.753 15.5369 179.878 1.12461e-006 -6.64692e-007 0.659559 -26.2381 74.9456 27.9197 8.30113 32.2024 -1.22583 179.756 14.4766 4.09436 4.54188e-006 -4.6773e-006 -0.965558 -3.17616 -15.1877 0.0996677 -6.58399e-007 -4.47814e-006 -0.256873 21.4685 71.0261 -22.4487 -8.1276 25.2332 3.48395 
60.1121 99.7707 12.719 -1.43802 2.78646 57.0042 -0.63034 -2.25793 0.973713 -1.23024 -0.524052 2.00469 -1.25449 1.12038 2.02556 -39.8199 -2.20125 4.24376 21.0173 2.95336 1.54748 20.1285 4.77584 12.007 153.411 83.3271 -8.6743 -1.3697e-005 2.10748e-005 5.35308e-006 -10.8432 64.1877 9.01258 -1.75579e-005 -1.57421e-006 -3.00406 8.02904 -4.95089 0.697304 -73.8284 -17.5661 9.76521 -87.5911 6.85151 -8.37604 6.36111e-015 -1.71949e-014 2.38542e-015 -16.0751 14.2844 2.36921 3.51121e-006 1.31715e-005 2.99999 -8.02943 -4.95095 -0.697444 175.07 -3.52773 2.46919 180 7.0152e-015 178.81 177.763 15.5093 179.875 1.12461e-006 -6.64692e-007 0.657591 -26.1749 74.9095 27.8549 8.30565 32.2883 -1.24404 179.777 14.4705 4.07321 4.54188e-006 -4.6773e-006 -0.965593 -3.1863 -15.1888 0.0977426 -6.58399e-007 -4.47814e-006 -0.256779 21.467 71.0253 -22.4475 -8.1276 25.2332 3.48395 
60.1472 99.7715 12.7266 -1.4487 2.76299 57.118 -0.62916 -2.25865 0.971785 -1.22804 -0.525532 2.00084 -1.25224 1.1189 2.02168 -39.861 -2.14717 4.23205 21.1064 2.92781 1.52338 20.0325 4.78879 12.0532 155.656 83.2607 -10.7124 -1.3697e-005 2.10748e-005 5.35308e-006 -11.1395 63.5301 9.09493 -1.75579e-005 -1.57421e-006 -3.00406 8.02904 -4.95089 0.697304 -73.8759 -17.5664 9.76173 -87.6749 6.86039 -8.50962 -5.08889e-014 -2.11706e-014 -9.93923e-015 -15.932 14.3587 2.37572 3.51121e-006 1.31715e-005 2.99999 -8.02943 -4.95095 -0.697444 175.117 -3.58009 2.4462 180 7.01519e-015 178.809 177.775 15.4821 179.871 1.12461e-006 -6.64692e-007 0.655627 -26.1117 74.8733 27.7901 8.31039 32.376 -1.26298 179.802 14.4646 4.04916 4.54188e-006 -4.6773e-006 -0.965627 -3.19716 -15.1911 0.095698 -6.58399e-007 -4.47814e-006 -0.256675 21.4651 71.0242 -22.4459 -8.1276 25.2332 3.48395 
60.1701 99.7757 12.7394 -1.4595 2.73797 57.2325 -0.62778 -2.2594 0.969651 -1.22545 -0.527096 1.99656 -1.2496 1.11734 2.01736 -39.8965 -2.09011 4.22093 21.1939 2.90115 1.49953 19.9405 4.79772 12.0937 157.812 83.1826 -12.677 -1.3697e-005 2.10748e-005 5.35308e-006 -11.4237 62.8818 9.16635 -1.75579e-005 -1.57421e-006 -3.00406 8.02904 -4.95089 0.697304 -73.9218 -17.5641 9.7571 -87.7606 6.86535 -8.64156 -5.725e-014 -4.87022e-015 -1.27222e-014 -15.7902 14.4337 2.38203 3.51121e-006 1.31715e-005 2.99999 -8.02943 -4.95095 -0.697444 175.166 -3.63324 2.42203 180 7.01519e-015 178.808 177.787 15.4552 179.867 1.12461e-006 -6.64692e-007 0.653667 -26.0483 74.8368 27.7252 8.31531 32.4652 -1.28253 179.83 14.4588 4.02289 4.54188e-006 -4.6773e-006 -0.965659 -3.20842 -15.1944 0.0935988 -6.58399e-007 -4.47814e-006 -0.256569 21.463 71.0229 -22.444 -8.1276 25.2332 3.48395 
60.1915 99.777 12.7447 -1.47043 2.71168 57.3477 -0.62626 -2.26017 0.967369 -1.22258 -0.528676 1.99197 -1.24667 1.11576 2.01272 -39.9267 -2.03138 4.21011 21.2802 2.87411 1.47595 19.8524 4.80338 12.1293 159.869 83.0933 -14.5589 -1.3697e-005 2.10748e-005 5.35308e-006 -11.6937 62.2419 9.2256 -1.75579e-005 -1.57421e-006 -3.00406 8.02904 -4.95089 0.697304 -73.9659 -17.5597 9.7516 -87.8483 6.86713 -8.77128 -6.36111e-015 -3.66758e-014 7.95139e-016 -15.6501 14.5091 2.38816 3.51121e-006 1.31715e-005 2.99999 -8.02943 -4.95095 -0.697444 175.217 -3.68685 2.39703 180 7.01519e-015 178.808 177.799 15.4287 179.863 1.12461e-006 -6.64692e-007 0.651711 -25.9849 74.8001 27.6601 8.3204 32.5558 -1.30258 179.859 14.453 3.99508 4.54188e-006 -4.6773e-006 -0.96569 -3.21973 -15.1985 0.0915102 -6.58399e-007 -4.47814e-006 -0.256468 21.4608 71.0214 -22.442 -8.1276 25.2332 3.48395 
60.2186 99.7761 12.7589 -1.48149 2.68438 57.4631 -0.624662 -2.26091 0.965 -1.21953 -0.530203 1.98718 -1.24356 1.11424 2.00789 -39.9523 -1.97233 4.19933 21.3655 2.84743 1.45269 19.7685 4.8065 12.1607 161.818 82.9936 -16.3508 -1.3697e-005 2.10748e-005 5.35308e-006 -11.9474 61.6096 9.27151 -1.75579e-005 -1.57421e-006 -3.00406 8.02904 -4.95089 0.697304 -74.0082 -17.5538 9.74553 -87.9377 6.86649 -8.89819 9.54166e-015 -9.79014e-015 -2.18663e-015 -15.5121 14.5845 2.39409 3.51121e-006 1.31715e-005 2.99999 -8.02943 -4.95095 -0.697444 175.269 -3.7406 2.37156 180 7.01519e-015 178.807 177.812 15.403 179.859 1.12461e-006 -6.64692e-007 0.649757 -25.9212 74.7631 27.5949 8.32564 32.6476 -1.32303 179.891 14.4471 3.9664 4.54188e-006 -4.6773e-006 -0.965719 -3.23076 -15.2031 0.0894972 -6.58399e-007 -4.47814e-006 -0.25638 21.4585 71.02 -22.44 -8.1276 25.2332 3.48395 
60.2467 99.7774 12.7658 -1.49268 2.65633 57.5787 -0.623045 -2.26161 0.962601 -1.21643 -0.531608 1.9823 -1.2404 1.11283 2.00297 -39.9735 -1.91427 4.18832 21.4502 2.82183 1.42978 19.6887 4.80784 12.1889 163.649 82.8843 -18.0466 -1.3697e-005 2.10748e-005 5.35308e-006 -12.183 60.984 9.303 -1.75579e-005 -1.57421e-006 -3.00406 8.02904 -4.95089 0.697304 -74.0484 -17.547 9.73916 -88.0287 6.86415 -9.02172 6.36111e-015 -3.72721e-015 -2.5842e-015 -15.3768 14.6594 2.39981 3.51121e-006 1.31715e-005 2.99999 -8.02943 -4.95095 -0.697444 175.322 -3.79415 2.34598 180 7.01519e-015 178.806 177.824 15.3779 179.855 1.12461e-006 -6.64692e-007 0.647807 -25.8573 74.7257 27.5295 8.33102 32.7403 -1.34375 179.923 14.4411 3.93751 4.54188e-006 -4.6773e-006 -0.965748 -3.24117 -15.2082 0.0876249 -6.58399e-007 -4.47814e-006 -0.256311 21.4562 71.0185 -22.438 -8.1276 25.2332 3.48395 
60.2722 99.7837 12.7792 -1.50401 2.62778 57.6941 -0.62147 -2.26222 0.960231 -1.21338 -0.532822 1.97746 -1.23729 1.11162 1.99808 -39.991 -1.85854 4.17679 21.5345 2.79804 1.40726 19.6133 4.80815 12.2146 165.356 82.7662 -19.642 -1.3697e-005 2.10748e-005 5.35308e-006 -12.3985 60.3641 9.31903 -1.75579e-005 -1.57421e-006 -3.00406 8.02904 -4.95089 0.697304 -74.0864 -17.5398 9.73277 -88.1212 6.86089 -9.14128 -1.27222e-014 6.06293e-015 -3.97569e-015 -15.2446 14.7335 2.40534 3.51121e-006 1.31715e-005 2.99999 -8.02943 -4.95095 -0.697444 175.375 -3.84717 2.32066 180 7.01518e-015 178.805 177.836 15.3537 179.851 1.12461e-006 -6.64692e-007 0.645858 -25.7931 74.688 27.4638 8.3365 32.8339 -1.36465 179.955 14.435 3.90911 4.54188e-006 -4.6773e-006 -0.965775 -3.25064 -15.2134 0.0859583 -6.58399e-007 -4.47814e-006 -0.25627 21.4542 71.0173 -22.4362 -8.1276 25.2332 3.48395 
60.3022 99.7821 12.7878 -1.51549 2.59898 57.8092 -0.62 -2.26272 0.957951 -1.21049 -0.533777 1.97277 -1.23434 1.11067 1.99335 -40.0052 -1.80647 4.16447 21.6187 2.77679 1.38518 19.5421 4.80816 12.2386 166.934 82.6401 -21.1337 -1.3697e-005 2.10748e-005 5.35308e-006 -12.5923 59.7493 9.31859 -1.75579e-005 -1.57421e-006 -3.00406 8.02904 -4.95089 0.697304 -74.1221 -17.5328 9.72665 -88.215 6.85742 -9.25629 1.92505e-031 -1.58531e-014 6.95746e-016 -15.1161 14.8064 2.41066 3.51121e-006 1.31715e-005 2.99999 -8.02943 -4.95095 -0.697444 175.427 -3.89932 2.29595 180 7.01518e-015 178.804 177.847 15.3304 179.847 1.12461e-006 -6.64692e-007 0.643912 -25.7286 74.6499 27.3978 8.34208 32.9281 -1.38559 179.987 14.4285 3.88186 4.54188e-006 -4.6773e-006 -0.965802 -3.25883 -15.2185 0.0845625 -6.58399e-007 -4.47814e-006 -0.256263 21.4525 71.0163 -22.4348 -8.1276 25.2332 3.48395 
60.3288 99.78 12.7972 -1.52713 2.57019 57.9236 -0.618693 -2.26308 0.955817 -1.20787 -0.534403 1.96834 -1.23167 1.11005 1.98888 -40.0166 -1.75938 4.15108 21.7031 2.75882 1.36356 19.4754 4.80864 12.2617 168.379 82.5068 -22.5199 -1.3697e-005 2.10748e-005 5.35308e-006 -12.7625 59.1384 9.30077 -1.75579e-005 -1.57421e-006 -3.00406 8.02904 -4.95089 0.697304 -74.1553 -17.5265 9.72107 -88.31 6.8545 -9.36617 3.18055e-015 -2.29348e-014 -3.27995e-015 -14.9916 14.8775 2.41577 3.51121e-006 1.31715e-005 2.99999 -8.02943 -4.95095 -0.697444 175.479 -3.95029 2.27222 180 7.01518e-015 178.803 177.857 15.3083 179.843 1.12461e-006 -6.64692e-007 0.641967 -25.6637 74.6114 27.3314 8.34771 33.0227 -1.40648 -179.982 14.4218 3.85643 4.54188e-006 -4.6773e-006 -0.965827 -3.2654 -15.2234 0.0835028 -6.58399e-007 -4.47814e-006 -0.256299 21.4512 71.0156 -22.4338 -8.1276 25.2332 3.48395 
60.3512 99.7837 12.8036 -1.53894 2.54166 58.0372 -0.617611 -2.26325 0.95389 -1.20564 -0.534632 1.96429 -1.22939 1.10982 1.98479 -40.0256 -1.71859 4.13635 21.7881 2.74484 1.34246 19.4132 4.8103 12.2847 169.687 82.3673 -23.7995 -1.3697e-005 2.10748e-005 5.35308e-006 -12.9075 58.5307 9.26467 -1.75579e-005 -1.57421e-006 -3.00406 8.02904 -4.95089 0.697304 -74.186 -17.5216 9.71632 -88.4061 6.85288 -9.47034 -3.18055e-015 1.70706e-014 -4.57205e-015 -14.8717 14.9466 2.42067 3.51121e-006 1.31715e-005 2.99999 -8.02943 -4.95095 -0.697444 175.529 -3.99973 2.24982 180 7.01518e-015 178.802 177.866 15.2874 179.84 1.12461e-006 -6.64692e-007 0.640024 -25.5985 74.5724 27.2647 8.35339 33.1175 -1.42719 -179.953 14.4146 3.8335 4.54188e-006 -4.6773e-006 -0.965852 -3.27002 -15.2279 0.0828441 -6.58399e-007 -4.47814e-006 -0.256383 21.4504 71.0154 -22.4333 -8.1276 25.2332 3.48395 
